# xmcd
#
# Track frame offsets: 
#        182
#        21342
#        37145
#        56745
#        65690
#        75632
#        94180
#        110652
#        140335
#        152137
#        162637
#        167970
#        177635
#        197682
#        208962
#        213180
#
# Disc length: 2935 seconds
#
# Revision: 3
# Processed by: cddbd v1.5.2PL0 Copyright (c) Steve Scherf et al.
# Submitted via: ExactAudioCopyFreeDBPlugin 1.0
#
DISCID=f70b7510
DTITLE=Brown, James - On Stage
DYEAR=1988
DGENRE=Funk
TTITLE0=It's Too Funky Here
TTITLE1=Try Me
TTITLE2=Sex Machine
TTITLE3=Get On
TTITLE4=Get Up Off The Thing
TTITLE5=Georgia
TTITLE6=Gonna Have A Funky Good Time
TTITLE7=It's A Man's Man's World
TTITLE8=Cold Sweat
TTITLE9=I Got The Feeling
TTITLE10=I Can't Stand It (Papa's Got A Brand New Bag)
TTITLE11=Please Please Please
TTITLE12=Jam
TTITLE13=I Feel Good
TTITLE14=Hot Pants
TTITLE15=(Give It Up) Turn It Loose
EXTD=
EXTT0=
EXTT1=
EXTT2=
EXTT3=
EXTT4=
EXTT5=
EXTT6=
EXTT7=
EXTT8=
EXTT9=
EXTT10=
EXTT11=
EXTT12=
EXTT13=
EXTT14=
EXTT15=
PLAYORDER=
